PathFileType	4	(X/Y/Z)	/Users/niels/Desktop/University/Third Semester/Perception and Action/Exam/Gymnastics Motion Tracking/Code for Gym Tracking/Analyzed Data/Webcam_Backflip/id2002_1_trajectory_Sports2D/id2002_1_trajectory_Sports2D_px_person00.trc
DataRate	CameraRate	NumFrames	NumMarkers	Units	OrigDataRate	OrigDataStartFrame	OrigNumFrames
29.795918367346935	29.795918367346935	7	22	m	29.795918367346935	128	147
Frame#	Time	Hip			RHip			RKnee			RAnkle			RBigToe			RSmallToe			RHeel			LHip			LKnee			LAnkle			LBigToe			LSmallToe			LHeel			Neck			Head			Nose			RShoulder			RElbow			RWrist			LShoulder			LElbow			LWrist		
		X1	Y1	Z1	X2	Y2	Z2	X3	Y3	Z3	X4	Y4	Z4	X5	Y5	Z5	X6	Y6	Z6	X7	Y7	Z7	X8	Y8	Z8	X9	Y9	Z9	X10	Y10	Z10	X11	Y11	Z11	X12	Y12	Z12	X13	Y13	Z13	X14	Y14	Z14	X15	Y15	Z15	X16	Y16	Z16	X17	Y17	Z17	X18	Y18	Z18	X19	Y19	Z19	X20	Y20	Z20	X21	Y21	Z21	X22	Y22	Z22
128	4.295890410958904	1.0519549410836029	-0.6107096879300261	0.0	1.0386106167789098	-0.6064450229314247	0.0	1.0431022388647448	-0.9828877669729683	0.0	1.017699320824295	-1.069226273474519	0.0	1.4445470624917576	-1.0831695860721977	0.0	1.426128496129768	-1.0936944814969738	0.0	1.14579002519282	-1.0835441917951545	0.0	1.0859125323329273	-0.6134515521487676	0.0	1.058615033185599	-0.9727117586913288	0.0	1.0404037137296593	-1.0617681640515697	0.0	1.5178310546875	-1.002380859375	0.0	1.0586647117007464	-1.0855283565606129	0.0	1.3035483517374051	-1.0614389643191051	0.0	1.0267179876421846	-0.14029195160383454	0.0	1.067362351728276	-0.017716402547197554	0.0	1.0922962633382023	-0.023850226825770957	0.0	0.9748030162828917	-0.1660410597656358	0.0	0.9760129869885095	-0.399007436620397	0.0	1.155038356261342	-0.5538323420341094	0.0	1.0706213501734152	-0.19859870369528826	0.0	1.0839194967427568	-0.3985767863730452	0.0	1.1485545034495137	-0.5585592447740633	0.0
129	4.329452054794521	1.0572164412495624	-0.6118333013098639	0.0	1.0439172433945931	-0.6077786600420565	0.0	1.0485704294377665	-0.9849260206119682	0.0	1.024407285034395	-1.0693165502432325	0.0	1.444546982313797	-1.083169730087562	0.0	1.4261284028273384	-1.0936946292524437	0.0	1.145792120286216	-1.0835444382639388	0.0	1.0905496905509322	-0.6146066699844455	0.0	1.0638573136655798	-0.9746277185499429	0.0	1.0466071043105545	-1.0619727799160614	0.0	1.5178310546875	-1.002380859375	0.0	1.0584094247120586	-1.085595624541354	0.0	1.3035483399936587	-1.0614389648371374	0.0	1.0277607033236253	-0.1404715676836131	0.0	1.0690105658627476	-0.017612980263409714	0.0	1.0942289597112107	-0.023722125260057406	0.0	0.9765004761029593	-0.1648617757352739	0.0	0.9746063604919789	-0.39793176703940947	0.0	1.1586717169869978	-0.5470639738624864	0.0	1.0705672242029791	-0.197611151633054	0.0	1.0839488004698057	-0.39665377375525573	0.0	1.1523681625731381	-0.5546862555587281	0.0
130	4.363013698630137	1.0611182919136912	-0.6121484170481033	0.0	1.047978641653607	-0.6083318797296479	0.0	1.0536334602461992	-0.9862182256005587	0.0	1.0307795927629573	-1.0696218537203628	0.0	1.4445469202606804	-1.0831698412856312	0.0	1.426128335460273	-1.0936947428521602	0.0	1.145793247014691	-1.083544670495113	0.0	1.093750491136102	-0.6150531824213415	0.0	1.068262322847941	-0.9760305505262746	0.0	1.051789690215507	-1.0624832229435692	0.0	1.5178310546875	-1.002380859375	0.0	1.0581457127384752	-1.0856651125009693	0.0	1.3035483351053727	-1.0614389650527662	0.0	1.0293723634523768	-0.14056796473485403	0.0	1.0724068329844967	-0.017182793811200355	0.0	1.097115070319718	-0.023020763213695013	0.0	0.9794083127445906	-0.16291123865143103	0.0	0.9737264675325451	-0.3965940985391352	0.0	1.1615647279396037	-0.5404226938110848	0.0	1.0705111891673282	-0.19603011147900365	0.0	1.0828347820089526	-0.3951458636952555	0.0	1.1561769016501018	-0.5502795421545005	0.0
131	4.396575342465754	1.0633815958658699	-0.6116852665300737	0.0	1.0506837651834877	-0.6081097105996168	0.0	1.0577861124012693	-0.9863391963779325	0.0	1.0361247677044896	-1.0700188720325194	0.0	1.4445468824327683	-1.0831699089330837	0.0	1.4261282969764228	-1.0936948117007272	0.0	1.1457936699854678	-1.0835448341881095	0.0	1.0952043221464833	-0.6148716453114494	0.0	1.0713238363250843	-0.9765508551498192	0.0	1.0557187671459805	-1.0631106348458248	0.0	1.5178310546875	-1.002380859375	0.0	1.057949677971277	-1.0857167675540227	0.0	1.3035483343659944	-1.061438965085381	0.0	1.0314529013945213	-0.14053326489524984	0.0	1.0777262953044169	-0.01657934290489697	0.0	1.1011306691995226	-0.0219383012712242	0.0	0.9832948229204121	-0.16024168518994833	0.0	0.9735827916619924	-0.3948781544142358	0.0	1.1637851118208744	-0.5341058345741213	0.0	1.070658519160553	-0.19395265848700743	0.0	1.0800521721620266	-0.39418890439065746	0.0	1.1590423852144125	-0.5457583510059758	0.0
132	4.43013698630137	1.0638491207668022	-0.6105986646468076	0.0	1.0520154350753625	-0.6072185305822159	0.0	1.0604505081097533	-0.985497192577259	0.0	1.0396591018688486	-1.0702345882141213	0.0	1.444546864811828	-1.0831699403500623	0.0	1.4261282807993647	-1.0936948434991525	0.0	1.1457936883175044	-1.0835449254206129	0.0	1.0947483173254033	-0.6142347123365307	0.0	1.0725894667805034	-0.9761647209263653	0.0	1.0581833745052658	-1.0634970757065785	0.0	1.5178310546875	-1.002380859375	0.0	1.0578344747786512	-1.0857471235317506	0.0	1.3035483355387916	-1.0614389650336473	0.0	1.0338972789719822	-0.14031732882252654	0.0	1.0851650399863593	-0.01611079700025796	0.0	1.1063035967818537	-0.020738396312018646	0.0	0.9880182377329031	-0.15704584997776141	0.0	0.9742800634876649	-0.3927206067619375	0.0	1.1654719893756862	-0.5283424535111733	0.0	1.071170351051337	-0.1914694175226848	0.0	1.0752564568138538	-0.39385513474054845	0.0	1.16020165885927	-0.5414111399071365	0.0
133	4.463698630136986	1.0624603709162697	-0.6090826884948104	0.0	1.0519641436649472	-0.6057715197902303	0.0	1.0612061265770272	-0.9843118633961737	0.0	1.0405445036960803	-1.0700820336518964	0.0	1.4445468602868596	-1.0831699483340798	0.0	1.4261282781954974	-1.093694851423334	0.0	1.145793534667653	-1.0835449621248552	0.0	1.0923406698546028	-0.6132705741224216	0.0	1.0716950078067584	-0.9750957341000508	0.0	1.0584772986955797	-1.063405143053177	0.0	1.5178310546875	-1.002380859375	0.0	1.057783723240771	-1.085760496533995	0.0	1.3035483371844925	-1.0614389649610534	0.0	1.0366561957706166	-0.1398119544519241	0.0	1.0948960816536635	-0.016136891457700652	0.0	1.1125112099596068	-0.019596486410571393	0.0	0.9935621958734246	-0.15366739719355035	0.0	0.9759047033216397	-0.39012092254011155	0.0	1.1667343809375612	-0.5232607242808553	0.0	1.0720778165943177	-0.188521566842181	0.0	1.068498304532741	-0.3939592113382107	0.0	1.1591634521720073	-0.5374340973843011	0.0
134	4.497260273972603	1.0592780115037883	-0.6073255745320607	0.0	1.0505135918099788	-0.6039032360440035	0.0	1.0598375705354544	-0.9832244245705565	0.0	1.0382257080980222	-1.0696251516141582	0.0	1.4445468623888609	-1.0831699444906773	0.0	1.4261282818972432	-1.0936948473540782	0.0	1.1457933514813758	-1.0835449664161654	0.0	1.087987255788173	-0.6120603734039635	0.0	1.0684509030047609	-0.973556726088152	0.0	1.0558553086467786	-1.0628861764027302	0.0	1.5178310546875	-1.002380859375	0.0	1.057773271284428	-1.0857632506187276	0.0	1.303548338581364	-1.0614389648994356	0.0	1.039847930746987	-0.13888189910730325	0.0	1.10686083972453	-0.016900213656480638	0.0	1.1196105300382329	-0.018605317601660943	0.0	0.9999457636337947	-0.1505375761980383	0.0	0.9785267743110281	-0.3871282780994728	0.0	1.1675926491177537	-0.5188613674268752	0.0	1.0732925726125377	-0.18497933665962843	0.0	1.0601823205380272	-0.3940588079429324	0.0	1.1558246101379992	-0.5339968544021432	0.0
